Patient4_TMGait_0pt4_03_left_01_EMG.mot
version=1
nRows=37
nColumns=33
inDegrees=no
endheader
time	1LAddLong	2LGlutMax	3LGlutMed	4LIliopsoas	5LSemiMemb	6LBicFemLong	7LRecFem	8LVastMed	9LVastLat	10LGasMed	11LTibAnt	12lTibPost	13LPeroneusLong	14LSol	15LExtDigLong	16LFlexDigLong	17RAddLong	18RGlutMax	19RGlutMed	20RIliopsoas	21RSemiMemb	22RBicFemLong	23RRecFem	24RVastMed	25RVastLat	26RGasMed	27RTibAnt	28RTibPost	29RPeroneusLong	30RSol	31RExtDigLong	32RFlexDigLong
1.755	0.003052	0.047302	0.014648	0.011139	-0.01358	-0.097504	-0.044708	0.013733	-0.047913	-0.13825	0.000458	-0.007629	-0.12451	-0.11505	0.038605	-0.35156	0.082245	-0.74402	-0.043182	-0.006256	-0.041046	-0.11688	-0.007629	0.30624	0.2417	-0.001831	-0.21805	-0.002594	0.080872	-0.075531	-0.003815	-0.011749
1.756	0.004578	0.04837	0.025482	0.009308	0.022125	-0.12314	-0.068054	0.009155	-0.046082	-0.91187	0.004883	-0.007782	-0.14099	-0.026093	0.042419	-0.08667	0.1471	-0.72647	-0.12924	0.009918	-0.25207	-0.30579	0.078583	0.20065	0.3006	-0.005646	-0.13123	-0.001984	0.014191	-0.084229	-0.002441	-0.003204
1.757	0.008545	0.004272	0.027161	0.010986	-0.000458	-0.085144	-0.081787	0.013123	-0.029144	-0.71304	0.004883	-0.007477	-0.081177	0.005188	0.057678	0.18875	0.2301	-0.66681	-0.24536	-0.017242	-0.005798	-0.35324	-0.082703	0.032959	0.2861	-0.008392	-0.32562	-0.00824	-0.022736	-0.057526	-0.004578	-0.009766
1.758	-0.000458	0.041656	0.04837	-0.004425	0.00473	0.021667	-0.044556	-0.009918	-0.033264	-0.40192	0.003815	-0.00824	-0.049896	-0.033569	0.024719	0.097351	0.21332	-0.58334	-0.32669	-0.00473	0.14618	-0.27771	-0.22003	-0.1619	0.26154	-0.00473	-0.21103	-0.002899	0.052032	-0.086517	-0.006866	-0.000458
1.759	0.002899	0.062714	0.059967	0.016785	-0.015564	0.10208	-0.057678	0.024719	-0.043793	-0.33508	-0.001984	-0.008698	-0.001526	-0.070648	0.005798	1.0405	0.10803	-0.53223	-0.32242	-0.013733	0.24216	-0.15854	-0.20325	-0.32516	0.12421	-0.000458	0.17838	-0.002899	0.083466	-0.065002	-0.008392	-0.006561
1.76	-0.008392	0.097504	0.056915	0.002441	-0.026093	0.13748	-0.09201	0.008087	-0.033875	-0.35812	-0.00351	-0.005646	0.064087	-0.12421	-0.020447	-0.69168	0.005188	-0.51224	-0.23254	-0.055389	0.099182	0.035095	-0.12024	-0.27969	0.19913	0.002747	0.13123	-0.003052	0.030365	-0.022278	0.000305	-0.001526
1.761	-0.004425	0.089111	0.064697	0.00824	-0.040436	0.13123	-0.12116	0.002747	-0.027466	0.068665	-0.006561	-0.006866	0.14404	-0.042877	-0.009155	-0.3244	-0.023804	-0.44083	0.09903	-0.076904	0.049286	0.13092	-0.064392	-0.32135	0.21408	-0.004578	0.1236	-0.003357	-0.066223	0.034027	-0.006104	-0.00946
1.762	0.001221	0.084534	0.079346	0.006866	-0.045319	0.045013	-0.13886	0.007477	-0.018616	0.40939	-0.001831	-0.015259	0.17685	0.10864	-0.032196	0.87662	0.010529	-0.37567	-0.067139	-0.048828	0.16296	-0.003052	-0.033722	-0.50766	0.10346	-0.002594	0.14008	-0.002747	-0.10239	0.055084	-0.002289	-0.015106
1.763	0.009155	0.11017	0.063324	0.007935	-0.021667	-0.054932	-0.13473	0.000305	-0.009766	0.34866	0.005646	0.023651	0.16861	0.24506	-0.029602	0.22171	0.07843	-0.32196	-0.21316	-0.01709	0.19928	-0.15701	0.010529	-0.39246	0.21851	-0.00351	0.15045	-0.000916	-0.11765	-0.036163	0.00061	-0.016632
1.764	0.011292	0.13641	0.066223	0.006409	0.007324	-0.083771	-0.15717	-0.003357	-0.007477	0.14282	0.017242	0.17807	0.091858	0.31006	-0.049896	0.091705	0.083008	-0.35431	-0.1413	0.04303	0.27954	-0.1889	0.011749	-0.11948	0.62561	-0.00412	0.22278	0.002441	-0.096283	-0.025635	-0.00412	-0.00946
1.765	0.003357	0.083313	0.09491	-0.003204	0.028534	-0.037689	-0.12283	0.001984	-0.026245	0.33142	-0.002594	-0.16235	0.074005	0.34073	-0.075073	0.33417	0.045166	-0.40527	-0.15335	0.12222	0.30884	-0.22125	-0.11231	0.030518	1.0037	-0.004883	0.30518	-0.001068	-0.063171	-0.047607	-0.005493	-0.011444
1.766	-0.001831	0.10605	0.10056	-0.005341	-0.030823	-0.020447	-0.13046	0.004272	-0.033722	0.59021	-0.009918	-0.028534	0.098419	0.15656	-0.011902	-0.12039	-0.068512	-0.43488	-0.31937	0.12802	0.21469	-0.24521	-0.23621	0.25177	1.2007	-0.003662	0.20386	-0.000763	-0.045166	-0.026093	-0.000153	-0.01236
1.767	0.006256	0.12054	0.085449	-0.001831	-0.068359	-0.036774	-0.12253	0.005951	-0.02121	-0.2594	-0.013885	-0.003204	0.061035	-0.2243	-0.004578	-0.30182	-0.028687	-0.3746	-0.32349	0.060272	0.096741	-0.224	-0.18753	0.40695	0.60257	-0.007172	0.14481	-0.000458	-0.04776	-0.007324	-0.003662	-0.016022
1.768	-0.002289	0.11704	0.052795	0.00061	-0.062561	-0.075226	-0.15137	0.000458	-0.032654	-0.76767	-0.006409	0.050507	-0.015564	-0.4863	-0.025024	-0.17792	0.007782	-0.29556	-0.20508	0.014954	0.17059	-0.26566	-0.159	0.34409	-0.33966	-0.009155	0.16159	-0.002747	-0.009918	0.093994	-0.003967	-0.018616
1.769	0.003662	0.12589	0.076141	0.000458	-0.028687	-0.03479	-0.13031	0.004425	-0.024261	-0.26993	0.011292	0.014496	-0.049744	-0.37888	-0.037231	-0.10162	0.061493	-0.30258	-0.1535	-0.02121	0.14297	-0.21088	-0.036926	0.14358	-0.70541	-0.000305	0.17151	-0.002289	-0.023041	0.12314	-0.001221	-0.019989
1.77	-0.000763	0.11978	0.13458	0.023346	0.02121	-0.010529	-0.12161	0.00885	-0.032654	-0.10132	0.012054	0.012207	0.000305	-0.3717	-0.024109	-0.080261	0.050049	-0.29022	-0.20538	-0.04364	0.030975	-0.16373	-0.035553	0.026855	-0.58166	-0.005798	0.14648	0	-0.027924	0.074463	-0.001526	-0.019989
1.771	-0.012207	0.13596	0.12146	0.02533	0.001373	-0.075378	-0.12299	0.004425	-0.024567	0.10101	0.004272	0.046387	0.077515	0.11459	0.002747	0.15366	0.028687	-0.26962	-0.21042	-0.034943	-0.018768	-0.10605	0.006104	0.02121	-0.75424	-0.001526	0.037842	-0.002899	-0.012817	0.045776	0	-0.013428
1.772	-0.003967	0.14587	0.11429	0.014954	0.03006	-0.10284	-0.13504	0.007782	-0.025787	0.15839	-0.004272	-0.03418	0.10941	0.43182	-0.00061	-0.12039	-0.019989	-0.23224	-0.18845	0.012512	-0.2446	0.062561	-0.018463	-0.061493	-0.93872	-0.008545	-0.1268	-0.003357	0.016174	0.036926	0.005646	-0.022125
1.773	-0.006714	0.15152	0.14862	0.008392	-0.015259	-0.087738	-0.16007	0.012817	-0.015869	-0.010529	-0.002747	-0.035858	0.10635	0.47333	0.015564	-0.04837	-0.078735	-0.10346	-0.20309	0.040131	-0.50842	0.2121	0.031281	0.075378	-0.87402	-0.010376	-0.10773	-0.00061	0.015259	0.029907	-0.000458	-0.00473
1.774	-0.007324	0.15366	0.13748	0.009308	-0.044556	-0.092621	-0.17166	0.004272	-0.007935	0.000458	0.010376	-0.022278	0.076752	0.24735	-0.040436	0.42664	-0.16495	-0.021973	-0.067902	0.094757	0.11719	0.25711	0.074158	0.15243	-0.68298	0.004578	-0.063782	0.000763	0.025482	0.026855	-0.004883	-0.002899
1.775	0.019531	0.15366	0.15411	0.001221	-0.023499	-0.13336	-0.17914	0.002747	-0.010986	0.47226	0.000305	-0.013428	0.039825	-0.032349	-0.045471	-0.80521	-0.12222	0.002594	-0.22232	0.059814	0.30838	0.18097	0.12833	0.1619	-0.43472	-0.003052	-0.011139	-0.000305	-0.018616	0.021057	0	-0.010834
1.776	0.020599	0.16174	0.16617	-0.008545	0.032349	-0.13153	-0.16754	0.00412	0.000305	0.48843	-0.001984	0.041962	0.016327	-0.28534	-0.02594	-0.019836	-0.072174	0.052338	-0.27176	0.046844	0.37064	0.082397	0.070801	0.034332	-0.36819	-0.003662	-0.000916	0.003052	-0.02121	0.020447	0.000305	-0.001831
1.777	0.02594	0.19669	0.20889	0.005341	0.07019	-0.084381	-0.15472	0.001068	-0.009003	-0.051727	0.009308	0.001526	0.0177	-0.44327	0.014496	0.070496	-0.034485	0.1619	-0.19257	-0.011902	0.35706	-0.08316	0.089569	0.15747	-0.18143	-0.007172	0.000916	-0.00351	-0.004425	0.002136	0.00351	-0.010071
1.778	0.029602	0.19073	0.23453	0.014343	0.049591	0.021667	-0.159	0.005188	0.002747	-0.59326	0.013733	0.071106	-0.007782	-0.41199	0.000305	-0.002136	0.016632	0.055542	-0.065765	-0.12314	0.25269	-0.006409	0.18921	0.13458	0.070801	-0.003357	-0.000305	-0.005341	-0.001221	0.00473	-0.001678	-0.011139
1.779	0.011902	0.15595	0.16754	0.009766	-0.001373	0.15762	-0.17471	0.005188	0.000458	-0.55374	0.009918	0.21881	-0.024872	-0.003967	-0.001526	0.006409	0.040894	-0.022278	-0.021515	-0.19012	0.00824	0.18814	0.15228	0.036926	0.053558	-0.005646	0.002289	-0.003357	0.001984	-0.00412	-0.002136	-0.003052
1.78	0.012054	0.1973	0.16312	0.011902	-0.02533	0.18463	-0.20584	0.003052	-0.010681	-0.21881	0.015259	-0.21744	0.024414	0.31204	-0.014343	-0.14938	0.041504	-0.11063	-0.103	-0.064392	-0.002899	0.1181	-0.11139	0.015411	-0.013275	-0.005341	0.012817	-0.003052	0.005188	-0.039978	0.001678	-0.012207
1.781	0.005951	0.21027	0.18204	0.003967	-0.005951	0.076752	-0.20676	0.007324	0.006714	0.23819	0.016327	-0.14175	0.12329	0.26642	-0.000916	0.15976	0.030518	-0.074463	-0.25589	0.06958	-0.13351	0.13123	-0.27725	-0.13199	0.004578	-0.012665	0.012512	-0.00351	0.078583	-0.045776	-0.00061	-0.009766
1.782	0.005493	0.17975	0.20569	0.000153	0.014191	0.014648	-0.20874	0.00473	0.015411	0.3064	-0.002594	0.17334	0.096893	0.13825	0.11169	-0.33768	0.035095	-0.082855	-0.31357	0.018311	-0.21637	0.18967	-0.13107	-0.12314	-0.15945	-0.007477	-0.002289	-0.002289	0.0914	-0.028992	-0.001984	-0.01236
1.783	0.010681	0.19089	0.19623	0.012817	0.018616	-0.021667	-0.20416	0.003662	0.003357	0.033722	-0.00824	-0.11063	0.051575	-0.1648	0.052032	-0.061646	0.030212	-0.1355	-0.24506	-0.037079	-0.033264	0.18875	-0.02243	0.03006	-0.22614	-0.003967	0.021515	-0.002289	0.054169	-0.016632	-0.003357	-0.007019
1.784	0.001984	0.19089	0.17181	0.007782	0.020905	0.013428	-0.20004	-0.003052	0.00824	0.18387	-0.006104	0.090485	0.046387	-0.70023	-0.025482	0.23819	0.027313	-0.2124	-0.13916	-0.07309	-0.22201	0.12375	0.002594	-0.024261	-0.25848	-0.002441	0.000153	-0.001221	-0.006866	-0.019379	0.000763	-0.014343
1.785	0.006256	0.17303	0.1738	0.005035	-0.006409	0.08667	-0.18234	0.001678	0.004578	0.29785	0.002289	-0.020294	-0.048981	-0.88242	-0.074921	-0.15427	0.063782	-0.32852	0.028534	-0.021667	-0.24292	0.020447	0.071716	-0.02594	-0.26169	-0.004578	0.031738	-0.002441	-0.06073	0.072174	0.000916	-0.021667
1.786	0.010681	0.19211	0.15472	0.004578	-0.020294	0.13886	-0.18402	0.008545	-0.009766	0.096588	-0.002289	-0.054016	-0.13687	-0.45532	-0.10681	-0.26855	0.060577	-0.34714	-0.06546	-0.037842	-0.17838	-0.019684	0.22064	-0.080414	-0.18875	-0.005188	0.03006	-0.00412	-0.009308	0.063477	0.001068	-0.010376
1.787	0.010529	0.19287	0.15259	0.016479	0.039978	0.095062	-0.15488	0.011902	-0.006866	-0.36407	0.003357	0.12741	-0.1741	-0.16357	-0.091858	0.010834	0.038605	-0.3891	0.017395	-0.22888	-0.054626	-0.069122	0.21301	-0.10544	-0.10223	-0.004578	0.014038	-0.003662	0.027161	0.024872	0.005646	-0.011597
1.788	0.012512	0.14969	0.17868	0.010071	0.007019	0.081329	-0.15961	0.011902	-0.006866	-0.2446	0.00885	-0.001678	-0.16647	-0.065155	-0.050964	0.019226	0.062714	-0.41504	-0.16144	-0.31708	0.18112	-0.14771	0.09613	-0.20432	-0.022583	-0.00946	0.032654	-0.003662	-0.001373	-0.03952	0.002136	-0.005646
1.789	0.016022	0.15961	0.1535	-0.000458	-0.011292	0.072937	-0.17654	0.012665	-0.015564	-0.018921	0.005188	-0.040741	-0.14374	0.32455	-0.00885	0.063629	0.097198	-0.36652	-0.3302	-0.19409	0.12116	-0.28015	0.015869	-0.19424	0.024567	-0.011292	0.029755	-0.000305	-0.005951	-0.052185	-0.000916	-0.010834
1.79	0.005646	0.15564	0.17777	-0.005646	-0.016785	0.031586	-0.18234	0.003967	-0.015259	-0.00824	-0.006714	-0.069275	-0.037537	0.32989	-0.015259	0.54474	0.095978	-0.3122	-0.31326	0.005646	0.059814	-0.383	0.042877	-0.1506	0.099792	-0.003052	0.039978	-0.000763	-0.1149	-0.040894	0.003662	-0.014038
1.791	0.012817	0.17975	0.2182	-0.003204	-0.008698	-0.018005	-0.17197	0.007019	-0.00473	-0.03067	-0.002289	-0.031738	0.033112	0.45487	-0.040741	0.1622	0.11887	-0.33524	0.054016	0.31632	0.1622	-0.29053	0.14633	-0.26291	0.068665	-0.002899	0.055237	0.001526	-0.16464	-0.022125	-0.001526	-0.006409
